<svg width="16" height="16" viewBox="0 0 16 16" fill="none" xmlns="http://www.w3.org/2000/svg">
<path fill-rule="evenodd" clip-rule="evenodd" d="M8.49984 2.66669C8.49984 2.39054 8.27598 2.16669 7.99984 2.16669C7.72369 2.16669 7.49984 2.39054 7.49984 2.66669V7.50002H2.6665C2.39036 7.50002 2.1665 7.72388 2.1665 8.00002C2.1665 8.27616 2.39036 8.50002 2.6665 8.50002H7.49984V13.3334C7.49984 13.6095 7.72369 13.8334 7.99984 13.8334C8.27598 13.8334 8.49984 13.6095 8.49984 13.3334V8.50002H13.3332C13.6093 8.50002 13.8332 8.27616 13.8332 8.00002C13.8332 7.72388 13.6093 7.50002 13.3332 7.50002H8.49984V2.66669Z" fill="#F3F3F3"/>
</svg>
