<svg width="16" height="16" viewBox="0 0 16 16" fill="none" xmlns="http://www.w3.org/2000/svg">
<path d="M8 14C11.3137 14 14 11.3137 14 8C14 4.68629 11.3137 2 8 2C4.68629 2 2 4.68629 2 8C2 11.3137 4.68629 14 8 14Z" fill="#7D7D7D"/>
<path fill-rule="evenodd" clip-rule="evenodd" d="M6.60062 5.76394C6.40536 5.56868 6.08878 5.56868 5.89352 5.76394C5.69825 5.9592 5.69825 6.27578 5.89352 6.47105L7.38465 7.96218L5.89364 9.45319C5.69837 9.64845 5.69837 9.96504 5.89364 10.1603C6.0889 10.3556 6.40548 10.3556 6.60074 10.1603L8.09176 8.66929L9.58277 10.1603C9.77803 10.3556 10.0946 10.3556 10.2899 10.1603C10.4851 9.96504 10.4851 9.64845 10.2899 9.45319L8.79886 7.96218L10.29 6.47105C10.4853 6.27578 10.4853 5.9592 10.29 5.76394C10.0947 5.56868 9.77815 5.56868 9.58289 5.76394L8.09176 7.25507L6.60062 5.76394Z" fill="white"/>
</svg>
