<svg width="24" height="24" viewBox="0 0 24 24" fill="none" xmlns="http://www.w3.org/2000/svg">
<rect width="24" height="24" rx="4" fill="#2A2A2A"/>
<path fill-rule="evenodd" clip-rule="evenodd" d="M6.81317 5.75263C6.52027 5.45974 6.0454 5.45974 5.75251 5.75263C5.45961 6.04552 5.45961 6.5204 5.75251 6.81329L10.879 11.9398L5.75253 17.0663C5.45964 17.3592 5.45964 17.8341 5.75253 18.127C6.04542 18.4199 6.5203 18.4199 6.81319 18.127L11.9397 13.0005L17.0662 18.127C17.3591 18.4199 17.834 18.4199 18.1269 18.127C18.4198 17.8341 18.4198 17.3592 18.1269 17.0663L13.0004 11.9398L18.1269 6.81329C18.4198 6.5204 18.4198 6.04552 18.1269 5.75263C17.834 5.45974 17.3591 5.45974 17.0662 5.75263L11.9397 10.8792L6.81317 5.75263Z" fill="#F3F3F3"/>
</svg>
