<svg width="14" height="13" viewBox="0 0 14 13" fill="none" xmlns="http://www.w3.org/2000/svg">
<path d="M9.19508 6.74384C9.19508 7.95795 8.21399 8.93904 6.99988 8.93904C5.78578 8.93904 4.80469 7.95795 4.80469 6.74384C4.80469 5.52974 5.78578 4.54865 6.99988 4.54865C8.21399 4.54865 9.19508 5.52974 9.19508 6.74384Z" stroke="#1990FF" stroke-width="1.5" stroke-linecap="round" stroke-linejoin="round"/>
<path d="M7 11.8149C9.16454 11.8149 11.1819 10.5395 12.5861 8.33199C13.138 7.4674 13.138 6.01416 12.5861 5.14957C11.1819 2.94211 9.16454 1.66669 7 1.66669C4.83546 1.66669 2.81809 2.94211 1.4139 5.14957C0.862034 6.01416 0.862034 7.4674 1.4139 8.33199C2.81809 10.5395 4.83546 11.8149 7 11.8149Z" stroke="#1990FF" stroke-width="1.5" stroke-linecap="round" stroke-linejoin="round"/>
</svg>
