<svg width="25" height="11" viewBox="0 0 25 11" fill="none" xmlns="http://www.w3.org/2000/svg">
<path d="M6.62305 6.36719V9.08203C6.52214 9.21549 6.36426 9.36198 6.14941 9.52148C5.93783 9.67773 5.65625 9.81283 5.30469 9.92676C4.95312 10.0407 4.5153 10.0977 3.99121 10.0977C3.54525 10.0977 3.13672 10.0228 2.76562 9.87305C2.39453 9.72005 2.07389 9.49707 1.80371 9.2041C1.53678 8.91113 1.33008 8.55469 1.18359 8.13477C1.03711 7.71159 0.963867 7.22982 0.963867 6.68945V6.19629C0.963867 5.65918 1.0306 5.18066 1.16406 4.76074C1.30078 4.33757 1.49609 3.97949 1.75 3.68652C2.00391 3.39355 2.3099 3.1722 2.66797 3.02246C3.0293 2.86947 3.43783 2.79297 3.89355 2.79297C4.47624 2.79297 4.95801 2.89062 5.33887 3.08594C5.72298 3.27799 6.01921 3.54492 6.22754 3.88672C6.43587 4.22852 6.56771 4.61914 6.62305 5.05859H5.42188C5.38281 4.8112 5.30632 4.58984 5.19238 4.39453C5.08171 4.19922 4.9222 4.04622 4.71387 3.93555C4.50879 3.82161 4.24186 3.76465 3.91309 3.76465C3.62988 3.76465 3.38086 3.81836 3.16602 3.92578C2.95117 4.0332 2.77214 4.19108 2.62891 4.39941C2.48893 4.60775 2.38314 4.86165 2.31152 5.16113C2.23991 5.46061 2.2041 5.80241 2.2041 6.18652V6.68945C2.2041 7.08008 2.24479 7.42676 2.32617 7.72949C2.41081 8.03223 2.53125 8.28776 2.6875 8.49609C2.84701 8.70443 3.04069 8.8623 3.26855 8.96973C3.49642 9.07389 3.75358 9.12598 4.04004 9.12598C4.31999 9.12598 4.54948 9.10319 4.72852 9.05762C4.90755 9.00879 5.04915 8.95182 5.15332 8.88672C5.26074 8.81836 5.34375 8.75326 5.40234 8.69141V7.28027H3.92285V6.36719H6.62305ZM9.28906 2.89062V10H8.06348V2.89062H9.28906ZM13.6689 3.83789L11.5449 10H10.2607L12.9365 2.89062H13.7568L13.6689 3.83789ZM15.4463 10L13.3174 3.83789L13.2246 2.89062H14.0498L16.7354 10H15.4463ZM15.3438 7.36328V8.33496H11.4766V7.36328H15.3438ZM13.9521 2.3291H13.0781L13.0342 1.63086C13.2002 1.62109 13.3337 1.60482 13.4346 1.58203C13.5355 1.55599 13.6087 1.52018 13.6543 1.47461C13.7031 1.42578 13.7275 1.3623 13.7275 1.28418C13.7275 1.21908 13.708 1.16374 13.6689 1.11816C13.6331 1.07259 13.5811 1.03678 13.5127 1.01074C13.4443 0.981445 13.3646 0.961914 13.2734 0.952148C13.1823 0.939128 13.083 0.932617 12.9756 0.932617L13.0098 0.341797C13.2865 0.341797 13.529 0.364583 13.7373 0.410156C13.9489 0.452474 14.1247 0.514323 14.2646 0.595703C14.4079 0.677083 14.5153 0.77474 14.5869 0.888672C14.6618 1.0026 14.6992 1.13118 14.6992 1.27441C14.6992 1.50879 14.6211 1.68132 14.4648 1.79199C14.3086 1.90267 14.1377 1.97103 13.9521 1.99707V2.3291ZM18.0293 2.89062H19.123L21.1787 8.37402L23.2295 2.89062H24.3232L21.6084 10H20.7393L18.0293 2.89062ZM17.5312 2.89062H18.5713L18.752 7.63672V10H17.5312V2.89062ZM23.7812 2.89062H24.8262V10H23.6006V7.63672L23.7812 2.89062Z" fill="white"/>
</svg>
