<svg width="20" height="20" viewBox="0 0 20 20" fill="none" xmlns="http://www.w3.org/2000/svg">
<path d="M10 17.5C14.1421 17.5 17.5 14.1421 17.5 10C17.5 5.85786 14.1421 2.5 10 2.5C5.85786 2.5 2.5 5.85786 2.5 10C2.5 14.1421 5.85786 17.5 10 17.5Z" fill="#7D7D7D"/>
<path fill-rule="evenodd" clip-rule="evenodd" d="M8.25054 7.20497C8.00646 6.96089 7.61073 6.96089 7.36665 7.20497C7.12257 7.44905 7.12257 7.84478 7.36665 8.08885L9.23062 9.95282L7.3669 11.8165C7.12283 12.0606 7.12282 12.4563 7.3669 12.7004C7.61098 12.9445 8.00671 12.9445 8.25079 12.7004L10.1145 10.8367L11.9782 12.7004C12.2223 12.9445 12.618 12.9445 12.8621 12.7004C13.1062 12.4563 13.1062 12.0606 12.8621 11.8165L10.9984 9.95282L12.8624 8.08885C13.1064 7.84478 13.1064 7.44905 12.8624 7.20497C12.6183 6.96089 12.2225 6.96089 11.9785 7.20497L10.1145 9.06894L8.25054 7.20497Z" fill="white"/>
</svg>
