<svg width="14" height="14" viewBox="0 0 14 14" fill="none" xmlns="http://www.w3.org/2000/svg">
<path d="M8.70581 13.6662H5.91511V9.17007H5.32597C4.96628 9.17007 4.6748 8.87859 4.6748 8.5189V7.34061C4.6748 6.98092 4.96628 6.68945 5.32597 6.68945H5.91511V5.13906C5.91511 3.85534 6.95698 2.81348 8.2407 2.81348H9.91512C10.2748 2.81348 10.5663 3.10495 10.5663 3.46464V4.95301C10.5663 5.3127 10.2748 5.60417 9.91512 5.60417H8.70581V6.68945H9.8717C9.96787 6.68896 10.0629 6.70988 10.15 6.75068C10.2371 6.79149 10.314 6.85117 10.3751 6.92538C10.4363 6.9996 10.4802 7.08649 10.5036 7.17976C10.527 7.27303 10.5293 7.37034 10.5105 7.46464L10.2748 8.64293C10.2128 8.94681 9.94612 9.16386 9.63605 9.16386H8.70581V13.6662ZM6.84535 12.736H7.77558V8.23983H9.41279L9.53682 7.61968H7.78178V5.3251C7.78178 4.96541 8.07325 4.67394 8.43294 4.67394H9.64225V3.74371H8.2407C7.4717 3.74371 6.84535 4.37007 6.84535 5.13906V7.61968H5.60504V8.23983H6.84535V12.736Z" fill="#F83544"/>
<path d="M8.86063 13.6666H5.1397C1.77226 13.6666 0.333496 12.2278 0.333496 8.86038V5.13945C0.333496 1.77201 1.77226 0.333252 5.1397 0.333252H8.86063C12.2281 0.333252 13.6668 1.77201 13.6668 5.13945V8.86038C13.6668 12.2278 12.2281 13.6666 8.86063 13.6666ZM5.1397 1.26348C2.28078 1.26348 1.26373 2.28054 1.26373 5.13945V8.86038C1.26373 11.7193 2.28078 12.7364 5.1397 12.7364H8.86063C11.7195 12.7364 12.7366 11.7193 12.7366 8.86038V5.13945C12.7366 2.28054 11.7195 1.26348 8.86063 1.26348H5.1397Z" fill="#F83544"/>
</svg>
