<svg width="37" height="35" viewBox="0 0 37 35" fill="none" xmlns="http://www.w3.org/2000/svg">
<path d="M35.5899 20C35.1771 19.4828 34.5767 19.1495 33.9193 19.0727C33.262 18.9959 32.6009 19.1818 32.08 19.59L24.9999 25.12C24.6494 25.3967 24.2165 25.548 23.7699 25.55H18.6999C18.3684 25.55 18.0505 25.4184 17.8161 25.1839C17.5816 24.9495 17.4499 24.6316 17.4499 24.3C17.4499 23.9685 17.5816 23.6506 17.8161 23.4162C18.0505 23.1817 18.3684 23.05 18.6999 23.05H22.9999C23.663 23.05 24.2989 22.7867 24.7677 22.3178C25.2366 21.849 25.4999 21.2131 25.4999 20.55C25.4999 19.887 25.2366 19.2511 24.7677 18.7823C24.2989 18.3134 23.663 18.05 22.9999 18.05H12.5499C11.2082 18.051 9.90547 18.5017 8.84995 19.33L5.37995 22.06C5.2754 22.1411 5.20723 22.2603 5.19036 22.3915C5.17349 22.5227 5.2093 22.6552 5.28995 22.76L11.9999 31.3C12.0455 31.3601 12.1045 31.4086 12.1723 31.4416C12.24 31.4746 12.3146 31.4912 12.3899 31.4901L20.5399 31.5601H22.7999C24.1681 31.5692 25.4983 31.1105 26.5699 30.26L35.1399 23.49C35.6576 23.0835 35.9948 22.4899 36.0789 21.8371C36.1631 21.1843 35.9875 20.5246 35.5899 20Z" fill="#F83544"/>
<path d="M3.33002 24.32C3.28999 24.2679 3.23988 24.2243 3.18266 24.192C3.12545 24.1596 3.0623 24.1391 2.99699 24.1316C2.93167 24.1241 2.86553 24.1299 2.80248 24.1485C2.73944 24.1672 2.68079 24.1983 2.63002 24.24L1.06002 25.48C1.00788 25.5201 0.964322 25.5702 0.931947 25.6274C0.899573 25.6846 0.879042 25.7478 0.871577 25.8131C0.864113 25.8784 0.869867 25.9445 0.888498 26.0076C0.907129 26.0706 0.938255 26.1293 0.980023 26.18L7.56002 34.51C7.64252 34.6131 7.76241 34.6793 7.89354 34.6943C8.02467 34.7093 8.15641 34.6718 8.26002 34.59L9.83002 33.35C9.93457 33.269 10.0027 33.1498 10.0196 33.0186C10.0365 32.8874 10.0007 32.7549 9.92002 32.6501L3.33002 24.32ZM29 0.300049L21.5 7.80005L18 4.30005L15 7.30005L21.5 13.8L32 3.30005L29 0.300049Z" fill="#F83544"/>
</svg>
