<svg width="37" height="41" viewBox="0 0 37 41" fill="none" xmlns="http://www.w3.org/2000/svg">
<path d="M34.6601 8.66997C28.3501 7.88997 22.2801 3.16997 19.7401 0.999969C19.3943 0.704852 18.9546 0.542725 18.5001 0.542725C18.0455 0.542725 17.6058 0.704852 17.2601 0.999969C14.7201 3.20997 8.65006 7.92997 2.34006 8.70997C1.85584 8.76743 1.41102 9.00512 1.09415 9.37574C0.777269 9.74635 0.611579 10.2227 0.630057 10.71C1.41006 29.84 14.0001 38.26 17.5701 40.26C17.8547 40.4176 18.1747 40.5002 18.5001 40.5002C18.8254 40.5002 19.1454 40.4176 19.4301 40.26C22.9801 38.26 35.5901 29.84 36.3701 10.66C36.386 10.1744 36.2191 9.70053 35.9025 9.33205C35.5859 8.96357 35.1425 8.72731 34.6601 8.66997ZM18.5001 30C16.6183 30.0019 14.7783 29.4456 13.2128 28.4014C11.6474 27.3572 10.4269 25.872 9.70588 24.1339C8.98485 22.3958 8.79568 20.4828 9.16231 18.6371C9.52893 16.7914 10.4349 15.096 11.7655 13.7654C13.0961 12.4348 14.7915 11.5288 16.6372 11.1622C18.4829 10.7956 20.3959 10.9848 22.134 11.7058C23.8721 12.4268 25.3573 13.6473 26.4015 15.2127C27.4457 16.7782 28.002 18.6182 28.0001 20.5C27.9974 23.0187 26.9957 25.4335 25.2146 27.2146C23.4336 28.9956 21.0188 29.9973 18.5001 30Z" fill="#F83544"/>
<path d="M22.7001 15.6899L17.0301 21.3599L14.2701 18.5999L12.3101 20.5599L15.0701 23.3199L17.0601 25.3099L19.0201 23.3499L24.6901 17.6799L22.7001 15.6899Z" fill="#F83544"/>
</svg>
