<svg width="35" height="31" viewBox="0 0 35 31" fill="none" xmlns="http://www.w3.org/2000/svg">
<path d="M32.7502 18.05C32.7502 18.05 32.7502 18.14 32.7502 18.18C32.7502 18.22 32.7502 18.25 32.7502 18.29V18.05ZM31.8802 10.42H22.7502C22.2197 10.42 21.711 10.2093 21.3359 9.83421C20.9609 9.45914 20.7502 8.95043 20.7502 8.42V4.57999C20.7504 4.04359 20.6428 3.5126 20.4337 3.01863C20.2246 2.52465 19.9183 2.07778 19.533 1.70459C19.1477 1.33141 18.6912 1.03954 18.1908 0.846336C17.6904 0.653137 17.1563 0.562561 16.6202 0.579994C16.1126 0.613056 15.6367 0.838278 15.2893 1.20983C14.9419 1.58138 14.7491 2.07133 14.7502 2.57999V6.58C14.7502 9.42 10.7502 11.42 10.7502 13.42V26.21C10.7456 26.5769 10.8421 26.938 11.0291 27.2537C11.2161 27.5694 11.4863 27.8276 11.8102 28L13.0502 28.66C15.2305 29.8289 17.6662 30.4404 20.1402 30.44H27.8802C28.6413 30.44 29.3713 30.1376 29.9095 29.5994C30.4478 29.0612 30.7502 28.3312 30.7502 27.57V27.31C30.7465 26.852 30.6297 26.402 30.4102 26C30.8206 25.7436 31.159 25.3869 31.3934 24.9635C31.6279 24.5401 31.7506 24.064 31.7502 23.58V22.82C31.7498 22.436 31.6727 22.0559 31.5233 21.7021C31.3738 21.3483 31.1552 21.028 30.8802 20.76C31.4062 20.5643 31.863 20.2182 32.1938 19.7648C32.5245 19.3114 32.7145 18.7707 32.7402 18.21C32.7113 17.539 32.4496 16.899 32.0002 16.4C32.7324 16.3641 33.4229 16.0484 33.9291 15.518C34.4353 14.9876 34.7185 14.2831 34.7202 13.55V13.29C34.7228 12.5332 34.4254 11.8062 33.8931 11.2683C33.3608 10.7303 32.6369 10.4253 31.8802 10.42Z" fill="#F83544"/>
<path d="M7.75 11.4199H0.75C0.617392 11.4199 0.490215 11.4726 0.396447 11.5664C0.302679 11.6601 0.25 11.7873 0.25 11.9199V27.9199C0.25 28.0525 0.302679 28.1797 0.396447 28.2735C0.490215 28.3672 0.617392 28.4199 0.75 28.4199H7.75C7.88261 28.4199 8.00979 28.3672 8.10355 28.2735C8.19732 28.1797 8.25 28.0525 8.25 27.9199V11.9199C8.25 11.7873 8.19732 11.6601 8.10355 11.5664C8.00979 11.4726 7.88261 11.4199 7.75 11.4199ZM4.25 25.4199C3.95333 25.4199 3.66332 25.3319 3.41665 25.1671C3.16997 25.0023 2.97771 24.768 2.86418 24.4939C2.75065 24.2199 2.72094 23.9183 2.77882 23.6273C2.8367 23.3363 2.97956 23.069 3.18934 22.8593C3.39912 22.6495 3.66639 22.5066 3.95736 22.4487C4.24834 22.3909 4.54994 22.4206 4.82403 22.5341C5.09811 22.6476 5.33238 22.8399 5.4972 23.0866C5.66203 23.3332 5.75 23.6232 5.75 23.9199C5.75 24.3177 5.59196 24.6993 5.31066 24.9806C5.02936 25.2619 4.64782 25.4199 4.25 25.4199Z" fill="#F83544"/>
</svg>
