<svg width="14" height="14" viewBox="0 0 14 14" fill="none" xmlns="http://www.w3.org/2000/svg">
<path d="M11.6435 10.0729L10.8615 9.29087C10.674 9.1034 10.4197 8.99808 10.1545 8.99808C9.88935 8.99808 9.63504 9.1034 9.44751 9.29087L8.83285 9.90553C8.76639 9.97357 8.68098 10.02 8.58775 10.0388C8.49453 10.0576 8.3978 10.0479 8.31018 10.0109C7.41951 9.62087 6.53951 9.02954 5.75485 8.24487C5.01573 7.51261 4.41856 6.64985 3.99351 5.7002C3.955 5.60968 3.94471 5.50965 3.96398 5.41318C3.98325 5.31672 4.03118 5.22831 4.10151 5.15954L4.65218 4.60887C5.09951 4.16154 5.09951 3.52887 4.70885 3.1382L3.92685 2.3562C3.67681 2.10624 3.33773 1.96582 2.98418 1.96582C2.63063 1.96582 2.29155 2.10624 2.04151 2.3562L1.60685 2.7902C1.11285 3.2842 0.906846 3.99687 1.04018 4.70354C1.36951 6.44554 2.38151 8.35287 4.01418 9.98554C5.64685 11.6182 7.55418 12.6302 9.29618 12.9595C10.0028 13.0929 10.7155 12.8869 11.2095 12.3929L11.6435 11.9589C11.7674 11.835 11.8656 11.688 11.9327 11.5262C11.9997 11.3644 12.0342 11.191 12.0342 11.0159C12.0342 10.8407 11.9997 10.6673 11.9327 10.5055C11.8656 10.3437 11.7674 10.1967 11.6435 10.0729V10.0729Z" stroke="#F83544" stroke-linecap="round" stroke-linejoin="round"/>
<path d="M7.66699 3.66027C8.01956 3.65447 8.3697 3.71966 8.69657 3.85194C9.02343 3.98422 9.32035 4.1809 9.56966 4.43027" stroke="#F83544" stroke-linecap="round" stroke-linejoin="round"/>
<path d="M11.455 2.54492C10.9581 2.04673 10.3676 1.65162 9.71757 1.38231C9.06751 1.11299 8.37064 0.974771 7.66699 0.97559" stroke="#F83544" stroke-linecap="round" stroke-linejoin="round"/>
<path d="M10.3393 6.33309C10.3451 5.98052 10.2799 5.63038 10.1477 5.30351C10.0154 4.97665 9.81871 4.67973 9.56934 4.43042" stroke="#F83544" stroke-linecap="round" stroke-linejoin="round"/>
<path d="M11.4551 2.54492C11.9533 3.04183 12.3484 3.63228 12.6177 4.28234C12.887 4.93241 13.0252 5.62928 13.0244 6.33292" stroke="#F83544" stroke-linecap="round" stroke-linejoin="round"/>
</svg>
