<svg width="14" height="12" viewBox="0 0 14 12" fill="none" xmlns="http://www.w3.org/2000/svg">
<path d="M12.8659 1.19434C12.8913 1.18553 12.9173 1.17882 12.9435 1.17423C12.9427 1.19861 12.941 1.21818 12.9384 1.24708C12.9356 1.27845 12.9318 1.3208 12.9272 1.39221L12.9271 1.39372C12.9123 1.63325 12.7772 2.33883 12.564 3.32077C12.3555 4.28092 12.0837 5.45601 11.8135 6.59764C11.5435 7.73879 11.2756 8.84439 11.0752 9.66484C10.975 10.075 10.8917 10.4138 10.8335 10.65L10.766 10.9235L10.7482 10.9952L10.7437 11.0135L10.7425 11.0181L10.7422 11.0193L10.7422 11.0195L11.2274 11.1401L10.7421 11.0196L10.7417 11.0212C10.7327 11.0581 10.7127 11.0913 10.6844 11.1164C10.6609 11.1372 10.6327 11.1517 10.6023 11.1587C10.5651 11.1574 10.5284 11.1499 10.4935 11.1365L10.3141 11.6032L10.4935 11.1365C10.4513 11.1203 10.4128 11.0957 10.3802 11.0642L10.3698 11.0541L10.3588 11.0446C9.85362 10.6095 8.71481 9.80251 7.68674 9.09267L7.37278 8.8759L7.08081 9.12148C6.7803 9.37423 6.19387 9.8802 5.5686 10.4978L5.78958 8.18668C5.92107 8.06935 6.18229 7.83569 6.53546 7.51763C7.0453 7.05847 7.72435 6.44326 8.40736 5.81284C9.08954 5.18317 9.77912 4.53517 10.3086 4.01137C10.5727 3.75012 10.802 3.51477 10.9721 3.32559C11.0566 3.23154 11.1322 3.1426 11.1917 3.06376C11.2355 3.00569 11.3212 2.88984 11.3588 2.75776L11.3589 2.75778L11.3611 2.74951C11.3867 2.65343 11.3937 2.52046 11.3306 2.38416C11.2671 2.24706 11.1595 2.16462 11.0641 2.12179C10.8938 2.04537 10.7327 2.07443 10.6471 2.1001L10.633 2.10431L10.6193 2.10935C10.5537 2.13327 10.4734 2.17683 10.4162 2.20839C10.345 2.2476 10.2551 2.29926 10.1507 2.36051C9.94149 2.48333 9.66399 2.65069 9.34165 2.84755C8.69645 3.24158 7.86406 3.7584 7.02285 4.28383C5.5034 5.23288 3.95116 6.21249 3.41203 6.55313L0.817485 5.70775C0.930429 5.65596 1.08023 5.59129 1.26386 5.51496C1.64131 5.35806 2.14777 5.15767 2.74088 4.92868C3.92633 4.47099 5.44632 3.90354 6.94758 3.34984C8.44839 2.7963 9.92857 2.25721 11.0337 1.85645C11.5862 1.65609 12.0449 1.49033 12.3654 1.37468L12.737 1.24072L12.8347 1.20556L12.8597 1.19657L12.8659 1.19434Z" stroke="#F83544"/>
</svg>
