<svg width="14" height="14" viewBox="0 0 14 14" fill="none" xmlns="http://www.w3.org/2000/svg">
<path d="M13 4.33333V9.66667C13 10.5507 12.6488 11.3986 12.0237 12.0237C11.3986 12.6488 10.5507 13 9.66667 13H4.33333C3.44928 13 2.60143 12.6488 1.97631 12.0237C1.35119 11.3986 1 10.5507 1 9.66667V4.33333C1 3.44928 1.35119 2.60143 1.97631 1.97631C2.60143 1.35119 3.44928 1 4.33333 1H9.66667C10.5507 1 11.3986 1.35119 12.0237 1.97631C12.6488 2.60143 13 3.44928 13 4.33333Z" stroke="#F83544" stroke-linecap="round" stroke-linejoin="round"/>
<path d="M5.6665 7C5.27094 7 4.88426 7.1173 4.55536 7.33706C4.22647 7.55682 3.97012 7.86918 3.81875 8.23463C3.66737 8.60009 3.62776 9.00222 3.70493 9.39018C3.7821 9.77814 3.97259 10.1345 4.25229 10.4142C4.532 10.6939 4.88836 10.8844 5.27632 10.9616C5.66429 11.0387 6.06642 10.9991 6.43187 10.8478C6.79732 10.6964 7.10968 10.44 7.32944 10.1111C7.54921 9.78224 7.6665 9.39556 7.6665 9V3C7.8885 3.66667 8.73317 5 10.3332 5" stroke="#F83544" stroke-linecap="round" stroke-linejoin="round"/>
</svg>
