<svg width="14" height="14" viewBox="0 0 14 14" fill="none" xmlns="http://www.w3.org/2000/svg">
<g clip-path="url(#clip0_352_2515)">
<path d="M11.9559 0.333117H2.04066C1.81186 0.316409 1.58215 0.349243 1.36719 0.429378C1.15223 0.509513 0.957088 0.635065 0.79506 0.797471C0.633033 0.959877 0.507937 1.15532 0.428303 1.37046C0.34867 1.58561 0.316372 1.81539 0.333614 2.04415V11.9594C0.317708 12.1868 0.350719 12.415 0.430424 12.6285C0.510129 12.8421 0.634677 13.0361 0.795677 13.1975C0.956678 13.3589 1.15039 13.4839 1.36378 13.5641C1.57716 13.6443 1.80525 13.6778 2.03269 13.6625H11.9639C12.1913 13.6778 12.4194 13.6443 12.6328 13.5641C12.8462 13.4839 13.0399 13.3589 13.2009 13.1975C13.3619 13.0361 13.4864 12.8421 13.5661 12.6285C13.6459 12.415 13.6789 12.1868 13.663 11.9594V2.04814C13.6808 1.81906 13.649 1.58883 13.5696 1.3732C13.4902 1.15756 13.3652 0.961618 13.2031 0.798764C13.041 0.635911 12.8457 0.509994 12.6304 0.429626C12.4151 0.349259 12.1851 0.316338 11.9559 0.333117ZM4.88043 1.01913C4.90473 0.999203 4.93279 0.984351 4.96293 0.975445C4.99307 0.96654 5.02469 0.963763 5.05592 0.967278H12.0556C12.188 0.963019 12.3198 0.986628 12.4425 1.03657C12.5651 1.08652 12.6759 1.16169 12.7677 1.2572C12.8594 1.35272 12.9301 1.46645 12.9751 1.59103C13.0201 1.7156 13.0384 1.84824 13.0288 1.98034V8.43761C13.0288 8.95212 13.0288 9.46663 13.0288 9.98114C13.0318 10.0206 13.0227 10.06 13.0027 10.0942C12.9828 10.1284 12.9529 10.1557 12.9171 10.1726C11.615 10.9308 10.1028 11.2484 8.60562 11.078C7.99968 11.021 7.40484 10.8787 6.83875 10.6552C6.61048 10.5647 6.36618 10.5215 6.12072 10.5284C5.87525 10.5352 5.63375 10.5919 5.41089 10.6951C5.0812 10.8604 4.73312 10.9863 4.3739 11.07C4.60063 10.7666 4.7387 10.4062 4.77274 10.029C4.79422 9.86222 4.77776 9.69273 4.72458 9.5332C4.6714 9.37367 4.58288 9.22821 4.46563 9.10767C3.89926 8.54896 3.46466 7.87094 3.1935 7.12301C2.92234 6.37508 2.82145 5.57607 2.89818 4.78421C2.96371 4.05685 3.17261 3.34967 3.51283 2.70346C3.85305 2.05725 4.31785 1.4848 4.88043 1.01913ZM13.0248 12.1149C13.0208 12.2412 12.9915 12.3654 12.9386 12.4801C12.8858 12.5949 12.8105 12.6979 12.7171 12.783C12.6238 12.8682 12.5144 12.9337 12.3953 12.9759C12.2762 13.018 12.1498 13.0358 12.0237 13.0283H2.05263C1.90772 13.0448 1.76095 13.0285 1.62325 12.9804C1.48556 12.9323 1.36048 12.8538 1.25735 12.7507C1.15422 12.6476 1.0757 12.5225 1.02763 12.3848C0.979563 12.2471 0.963193 12.1003 0.97974 11.9554V2.04415C0.962653 1.89931 0.978477 1.75248 1.02603 1.6146C1.07359 1.47672 1.15165 1.35136 1.25439 1.24784C1.35714 1.14433 1.48192 1.06534 1.61944 1.01676C1.75696 0.968183 1.90367 0.951268 2.04864 0.967278H3.96708C3.96708 1.04705 3.91124 1.07497 3.87534 1.11485C3.28861 1.74143 2.84269 2.48627 2.56753 3.29938C2.29236 4.11249 2.19432 4.97505 2.27997 5.82918C2.40341 7.1802 2.98785 8.44764 3.93517 9.41877C4.02815 9.50878 4.09477 9.62249 4.12781 9.74762C4.16085 9.87275 4.15905 10.0045 4.12263 10.1287C4.09908 10.3414 4.01895 10.5438 3.89058 10.715C3.76221 10.8861 3.5903 11.0197 3.39274 11.1019C3.32492 11.124 3.26775 11.1705 3.23236 11.2325C3.19697 11.2944 3.1859 11.3673 3.2013 11.4369C3.20845 11.5071 3.23985 11.5725 3.29008 11.6221C3.34032 11.6716 3.40624 11.702 3.4765 11.7081C4.01245 11.8121 4.56712 11.7566 5.07187 11.5486L5.77782 11.2455C5.90317 11.1889 6.03913 11.1596 6.17667 11.1596C6.3142 11.1596 6.45016 11.1889 6.57551 11.2455C7.66677 11.6733 8.84124 11.8465 10.0096 11.752C11.0078 11.68 11.9815 11.4088 12.8732 10.9543L13.0567 10.8666C13.0288 11.2893 13.0408 11.7041 13.0248 12.1149Z" fill="#F83544"/>
<path d="M4.67279 4.76038C4.74706 4.77884 4.82377 4.78557 4.90013 4.78032H5.78556L5.68186 4.95581L4.53718 6.78252C4.4942 6.83336 4.46775 6.89611 4.46139 6.96239C4.45502 7.02866 4.46903 7.0953 4.50155 7.1534C4.53407 7.21149 4.58354 7.25828 4.64336 7.28751C4.70318 7.31674 4.7705 7.32702 4.83631 7.31697C5.32689 7.31697 5.81747 7.31697 6.30804 7.31697C6.54336 7.31697 6.68296 7.19332 6.68296 6.99789C6.68296 6.80246 6.54336 6.6828 6.28411 6.6828H5.37475C5.38483 6.6205 5.41251 6.56238 5.45452 6.51529L6.31602 5.11934C6.42371 4.95182 6.5314 4.78431 6.63111 4.61281C6.66204 4.56775 6.68022 4.51516 6.68372 4.46062C6.68721 4.40607 6.6759 4.3516 6.65096 4.30296C6.62603 4.25432 6.58841 4.21333 6.54209 4.18432C6.49576 4.15531 6.44246 4.13937 6.38781 4.13818C5.8414 4.13818 5.29099 4.13818 4.74059 4.13818C4.66896 4.13815 4.60015 4.16605 4.54876 4.21595C4.49737 4.26585 4.46746 4.33381 4.46539 4.40541C4.44997 4.47975 4.46263 4.55716 4.50093 4.62272C4.53923 4.68827 4.60045 4.73731 4.67279 4.76038Z" fill="#F83544"/>
<path d="M8.20678 7.22903C8.25862 7.2051 8.30649 7.16123 8.3703 7.22903C8.41429 7.27733 8.47344 7.30918 8.53797 7.31933C8.60251 7.32949 8.66858 7.31733 8.72527 7.28487C8.78321 7.2555 8.83095 7.20934 8.86226 7.15242C8.89356 7.0955 8.90698 7.03046 8.90076 6.9658C8.90076 6.71453 8.90076 6.46325 8.90076 6.21198C8.90076 5.94476 8.90076 5.67354 8.90076 5.4143C8.90681 5.35072 8.89119 5.28697 8.85643 5.23339C8.82168 5.17981 8.76983 5.13955 8.70932 5.11915C8.65821 5.08911 8.59877 5.07638 8.53984 5.08284C8.48091 5.08931 8.42564 5.11464 8.38227 5.15505C8.31047 5.22285 8.25863 5.20291 8.18683 5.15505C8.05232 5.09595 7.907 5.06543 7.76007 5.06543C7.61315 5.06543 7.46782 5.09595 7.33331 5.15505C7.06304 5.26929 6.84923 5.48622 6.7389 5.75811C6.62857 6.03 6.63077 6.33458 6.74501 6.60484C6.85926 6.87511 7.07618 7.08893 7.34807 7.19925C7.61996 7.30958 7.92454 7.30738 8.19481 7.19314L8.20678 7.22903ZM7.784 5.73337C7.84677 5.7312 7.90931 5.74182 7.96784 5.7646C8.02636 5.78738 8.07964 5.82183 8.12442 5.86587C8.1692 5.9099 8.20454 5.96259 8.2283 6.02072C8.25206 6.07885 8.26373 6.14122 8.26261 6.20401C8.26422 6.26662 8.25321 6.32892 8.23023 6.3872C8.20725 6.44547 8.17277 6.49851 8.12885 6.54318C8.08493 6.58784 8.03247 6.6232 7.9746 6.64716C7.91672 6.67111 7.85461 6.68317 7.79198 6.68262C7.72913 6.6821 7.66699 6.6692 7.60912 6.64466C7.55125 6.62013 7.49879 6.58443 7.45471 6.53962C7.41064 6.49481 7.37582 6.44175 7.35226 6.38348C7.32869 6.32521 7.31683 6.26287 7.31735 6.20002C7.31735 6.13874 7.32942 6.07806 7.35288 6.02144C7.37633 5.96482 7.4107 5.91338 7.45403 5.87005C7.49736 5.82672 7.54881 5.79234 7.60542 5.76889C7.66204 5.74544 7.72272 5.73337 7.784 5.73337Z" fill="#F83544"/>
<path d="M11.2817 7.31278C11.5007 7.31199 11.7145 7.24639 11.8962 7.12425C12.0779 7.00211 12.2194 6.82891 12.3029 6.62647C12.3863 6.42403 12.4079 6.20142 12.365 5.98671C12.3221 5.772 12.2166 5.5748 12.0618 5.41997C11.9069 5.26514 11.7097 5.15963 11.495 5.11672C11.2803 5.07381 11.0577 5.09543 10.8553 5.17885C10.6528 5.26228 10.4796 5.40378 10.3575 5.5855C10.2353 5.76723 10.1697 5.98105 10.1689 6.2C10.17 6.49481 10.2876 6.77723 10.496 6.98569C10.7045 7.19415 10.9869 7.31173 11.2817 7.31278ZM11.2817 5.7174C11.343 5.71844 11.4035 5.73154 11.4597 5.75596C11.5159 5.78038 11.5668 5.81563 11.6094 5.8597C11.652 5.90378 11.6855 5.95581 11.7079 6.01283C11.7304 6.06985 11.7414 6.13074 11.7404 6.19203C11.7404 6.31791 11.6904 6.43863 11.6014 6.52764C11.5124 6.61665 11.3916 6.66665 11.2658 6.66665C11.1399 6.66665 11.0192 6.61665 10.9302 6.52764C10.8411 6.43863 10.7911 6.31791 10.7911 6.19203C10.7926 6.1281 10.807 6.06513 10.8336 6.00697C10.8602 5.94881 10.8984 5.89667 10.9458 5.85375C10.9932 5.81083 11.0488 5.77801 11.1093 5.75731C11.1698 5.73662 11.2339 5.72846 11.2977 5.73336L11.2817 5.7174Z" fill="#F83544"/>
<path d="M9.53489 7.31687C9.73432 7.31687 9.84998 7.18526 9.84998 6.91803C9.84998 6.46335 9.84998 6.00867 9.84998 5.55399C9.84998 5.0993 9.84998 4.64063 9.84998 4.18595C9.84998 3.94266 9.73033 3.78711 9.53888 3.78711C9.34744 3.78711 9.21582 3.93069 9.21582 4.16601V6.90208C9.21582 7.17728 9.33547 7.31687 9.53489 7.31687Z" fill="#F83544"/>
</g>
<defs>
<clipPath id="clip0_352_2515">
<rect width="13.3293" height="13.3333" fill="white" transform="translate(0.333496 0.333252)"/>
</clipPath>
</defs>
</svg>
